<?xml version="1.0" encoding="UTF-8" standalone="no"?>
<!DOCTYPE svg PUBLIC "-//W3C//DTD SVG 1.1//EN" "http://www.w3.org/Graphics/SVG/1.1/DTD/svg11.dtd">
<svg width="100%" height="100%" viewBox="0 0 1462 326" fill="currentColor" preserveAspectRatio="xMaxYMax meet" version="1.1" xmlns="http://www.w3.org/2000/svg" xmlns:xlink="http://www.w3.org/1999/xlink" xml:space="preserve" xmlns:serif="http://www.serif.com/" style="fill-rule:evenodd;clip-rule:evenodd;stroke-linejoin:round;stroke-miterlimit:2;">
    <g id="Artboard2" transform="matrix(0.84852,0,0,0.628131,795.911782,611.799615)">
        <rect x="-938" y="-974" width="1723" height="519" style="fill:none;"/>
        <g transform="matrix(4.910511,0,0,6.633436,-3942.643297,-10463.26227)">
            <circle cx="871" cy="1441" r="10" style="fill:rgb(207,90,35);"/>
        </g>
        <g transform="matrix(4.910511,0,0,6.633436,-3942.643297,-10463.26227)">
            <path d="M674.966,1466.025C675.326,1465.822 675.784,1465.95 675.988,1466.31C676.191,1466.671 676.063,1467.128 675.703,1467.332C671.177,1469.886 670.731,1469.008 666.678,1472.209C666.029,1472.722 665.355,1472.746 664.577,1472.596C663.899,1472.464 663.107,1472.15 662.096,1472.423C661.423,1472.604 660.664,1473.048 659.768,1473.933C657.78,1475.896 652.692,1479.451 652.053,1479.897C647.982,1482.737 645.833,1482.008 644.18,1481.459C643.421,1481.207 642.808,1480.92 642.054,1481.505C641.106,1482.24 640.613,1482.8 640.177,1483.238C639.405,1484.012 638.797,1484.484 636.759,1484.829C635.257,1485.084 634.546,1485.934 633.566,1486.87C631.853,1488.506 629.503,1490.486 622.501,1491.018C622.27,1491.036 622.168,1491.114 621.714,1491.321C620.814,1491.731 618.894,1492.588 613.889,1494.385C613.499,1494.525 613.069,1494.323 612.929,1493.933C612.789,1493.543 612.992,1493.114 613.382,1492.974C619.141,1490.905 620.759,1490.101 621.469,1489.785C621.887,1489.599 622.078,1489.546 622.387,1489.523C628.793,1489.036 630.963,1487.281 632.53,1485.785C633.736,1484.633 634.66,1483.664 636.508,1483.35C638.053,1483.088 638.53,1482.766 639.115,1482.179C639.584,1481.709 640.116,1481.11 641.134,1480.319C642.386,1479.348 643.393,1479.617 644.653,1480.036C646.029,1480.493 647.805,1481.032 651.194,1478.667C651.817,1478.232 656.778,1474.777 658.714,1472.866C659.942,1471.653 660.995,1471.129 661.899,1470.927C662.828,1470.719 663.615,1470.849 664.308,1471.002C664.6,1471.067 664.871,1471.136 665.127,1471.165C665.348,1471.19 665.555,1471.186 665.748,1471.032C669.892,1467.759 670.338,1468.637 674.966,1466.025Z" style="fill:rgb(207,90,35);"/>
            <path d="M618.406,1496.246C617.993,1496.283 617.628,1495.979 617.59,1495.567C617.553,1495.155 617.857,1494.79 618.269,1494.752C619.328,1494.655 621.743,1493.959 623.458,1492.688C624.469,1491.938 625.257,1490.99 625.177,1489.787C625.149,1489.374 625.462,1489.016 625.875,1488.989C626.288,1488.961 626.646,1489.274 626.674,1489.687C626.788,1491.401 625.792,1492.825 624.351,1493.893C622.387,1495.349 619.618,1496.135 618.406,1496.246Z" style="fill:rgb(207,90,35);"/>
            <path d="M628.602,1492.975C628.188,1492.976 627.851,1492.64 627.851,1492.226C627.851,1491.812 628.186,1491.476 628.6,1491.475C630.115,1491.474 630.973,1491.173 631.483,1490.712C631.983,1490.259 632.131,1489.683 632.304,1489.239C632.594,1488.498 632.97,1488.008 633.668,1487.891C634.053,1487.827 635.212,1487.912 636.42,1487.697C637.31,1487.538 638.253,1487.218 638.773,1486.394C639.123,1485.84 639.265,1485.071 639.124,1484.018C639.069,1483.608 639.358,1483.23 639.768,1483.175C640.179,1483.121 640.556,1483.409 640.611,1483.82C640.811,1485.321 640.541,1486.405 640.042,1487.195C639.288,1488.389 637.973,1488.944 636.683,1489.173C635.468,1489.39 634.302,1489.306 633.915,1489.37C633.895,1489.374 633.889,1489.394 633.878,1489.41C633.846,1489.456 633.819,1489.509 633.793,1489.567C633.697,1489.774 633.616,1490.021 633.511,1490.279C633.258,1490.905 632.892,1491.581 632.131,1492.109C631.425,1492.598 630.348,1492.974 628.602,1492.975Z" style="fill:rgb(207,90,35);"/>
            <path d="M661.164,1475.241C661.431,1474.925 661.904,1474.884 662.221,1475.151C662.537,1475.417 662.578,1475.891 662.311,1476.208C656.66,1482.92 657.742,1483.786 651.272,1489.619C650.965,1489.897 650.49,1489.872 650.213,1489.565C649.936,1489.257 649.96,1488.783 650.268,1488.505C656.661,1482.741 655.579,1481.874 661.164,1475.241Z" style="fill:rgb(207,90,35);"/>
            <path d="M656.087,1486.852C655.797,1487.148 655.322,1487.152 655.027,1486.862C654.731,1486.572 654.727,1486.097 655.017,1485.802C655.186,1485.629 655.2,1485.442 655.35,1485.099C655.829,1484.001 657.099,1481.625 663.323,1475.073C667.57,1470.602 667.621,1470.64 667.858,1470.16C668.041,1469.789 668.492,1469.636 668.863,1469.82C669.234,1470.003 669.386,1470.453 669.203,1470.824C668.951,1471.336 668.941,1471.337 664.41,1476.106C657.587,1483.289 656.929,1485.207 656.565,1486.081C656.43,1486.406 656.309,1486.627 656.087,1486.852Z" style="fill:rgb(207,90,35);"/>
            <path d="M665.031,1481.41C664.847,1481.781 664.396,1481.932 664.025,1481.747C663.655,1481.563 663.504,1481.112 663.688,1480.742C668.078,1471.929 669.754,1470.983 671.912,1467.705C672.14,1467.359 672.605,1467.263 672.951,1467.491C673.297,1467.718 673.393,1468.184 673.165,1468.529C671.032,1471.769 669.369,1472.7 665.031,1481.41Z" style="fill:rgb(207,90,35);"/>
            <path d="M675.977,1467.341C675.572,1467.254 675.314,1466.855 675.401,1466.45C675.488,1466.045 675.887,1465.787 676.291,1465.874C676.71,1465.964 677.642,1466.458 679.026,1467.16C681.996,1468.666 687.269,1471.119 694.32,1471.76C694.732,1471.797 695.037,1472.162 694.999,1472.575C694.962,1472.987 694.597,1473.291 694.184,1473.254C686.884,1472.59 681.422,1470.057 678.347,1468.498C677.139,1467.885 676.342,1467.419 675.977,1467.341Z" style="fill:rgb(207,90,35);"/>
            <path d="M677.424,1468.771C677.264,1468.389 677.445,1467.95 677.827,1467.79C678.209,1467.631 678.648,1467.811 678.808,1468.193C679.718,1470.374 679.852,1470.223 680.17,1472.558C680.226,1472.968 679.939,1473.346 679.528,1473.402C679.118,1473.458 678.74,1473.171 678.684,1472.76C678.393,1470.624 678.256,1470.766 677.424,1468.771Z" style="fill:rgb(207,90,35);"/>
            <path d="M642.094,1501.183L641.953,1501.171L641.8,1501.124L641.647,1501.035L641.459,1500.831L642.094,1501.183ZM642.529,1501.078C642.51,1501.086 642.491,1501.093 642.471,1501.1C642.356,1501.139 642.298,1501.157 642.293,1501.158L642.11,1501.185L642.095,1501.183L641.367,1500.259L641.443,1500.067L641.594,1499.878L641.8,1499.746L641.864,1499.721C642.256,1499.583 649.132,1497.2 657.23,1493.851C662.198,1491.796 664.992,1491.276 666.698,1490.944C668.044,1490.682 668.572,1490.637 669.056,1489.612C669.781,1488.077 670.282,1487.183 670.879,1486.522C671.769,1485.538 672.881,1485.063 675.396,1483.834C684.608,1479.332 683.773,1478.137 692.052,1473.402C693.007,1472.855 698.433,1469.753 703.064,1465.169C708.352,1459.933 711.614,1458.416 713.789,1458.259C715.228,1458.155 716.255,1458.608 717.108,1459.109C717.573,1459.381 717.974,1459.672 718.374,1459.844C718.754,1460.007 718.931,1460.448 718.768,1460.829C718.605,1461.209 718.164,1461.385 717.783,1461.222C717.332,1461.029 716.874,1460.71 716.349,1460.403C715.718,1460.032 714.962,1459.679 713.897,1459.755C711.897,1459.899 708.981,1461.422 704.119,1466.235C699.357,1470.949 693.778,1474.142 692.797,1474.704C684.477,1479.462 685.312,1480.658 676.054,1485.182C673.81,1486.278 672.786,1486.649 671.992,1487.528C671.468,1488.108 671.049,1488.905 670.412,1490.253C669.805,1491.538 669.202,1491.918 667.902,1492.225C666.367,1492.588 663.608,1492.836 657.804,1495.237C650.382,1498.306 643.654,1500.684 642.529,1501.078ZM642.095,1501.183L642.096,1501.185L642.094,1501.183L642.095,1501.183Z" style="fill:rgb(207,90,35);"/>
            <path d="M654.565,1499.664C654.211,1499.878 653.75,1499.765 653.535,1499.41C653.321,1499.056 653.435,1498.595 653.789,1498.381C654.187,1498.14 654.486,1497.95 654.703,1497.768C654.829,1497.662 654.92,1497.571 654.965,1497.454C655.018,1497.319 655.016,1497.162 655.003,1496.962C654.983,1496.649 654.922,1496.266 654.844,1495.77C654.779,1495.361 655.059,1494.977 655.467,1494.912C655.876,1494.848 656.261,1495.127 656.325,1495.536C656.522,1496.78 656.57,1497.465 656.364,1497.996C656.149,1498.552 655.659,1499.003 654.565,1499.664Z" style="fill:rgb(207,90,35);"/>
            <path d="M680.371,1486.595C679.994,1486.766 679.549,1486.599 679.378,1486.222C679.207,1485.846 679.374,1485.4 679.751,1485.229C680.726,1484.786 682.25,1484.014 682.465,1483.905C682.835,1483.718 683.286,1483.866 683.473,1484.235C683.66,1484.605 683.512,1485.056 683.143,1485.243C682.923,1485.355 681.367,1486.142 680.371,1486.595Z" style="fill:rgb(207,90,35);"/>
            <path d="M692.615,1477.837C692.283,1478.086 691.813,1478.018 691.565,1477.687C691.316,1477.356 691.383,1476.886 691.714,1476.637L694.116,1474.836C694.447,1474.587 694.917,1474.654 695.166,1474.985C695.414,1475.316 695.347,1475.787 695.016,1476.035L692.615,1477.837Z" style="fill:rgb(207,90,35);"/>
            <path d="M713.836,1463.52C713.475,1463.724 713.017,1463.597 712.813,1463.236C712.61,1462.876 712.737,1462.418 713.097,1462.214C718.796,1458.99 719.699,1460.125 723.638,1454.882C724.997,1453.074 726.366,1452.279 727.536,1451.969C729.384,1451.478 730.799,1452.182 731.149,1452.357C731.52,1452.542 731.67,1452.993 731.485,1453.364C731.3,1453.734 730.849,1453.884 730.478,1453.699C730.23,1453.575 729.229,1453.071 727.921,1453.418C726.986,1453.666 725.922,1454.339 724.837,1455.783C720.712,1461.275 719.805,1460.142 713.836,1463.52Z" style="fill:rgb(207,90,35);"/>
            <path d="M669.338,1498.708C669.364,1498.703 669.39,1498.697 669.416,1498.691C669.702,1498.62 672.308,1497.561 672.558,1497.46C688.517,1491.016 702.394,1478.398 704.334,1475.328C707.679,1470.034 711.339,1468.34 714.874,1466.925C718.156,1465.611 721.335,1464.577 723.955,1460.671C731.41,1449.554 733.402,1450.637 738.133,1447.043C738.462,1446.793 738.933,1446.857 739.184,1447.187C739.434,1447.516 739.37,1447.987 739.04,1448.238C734.428,1451.741 732.469,1450.668 725.2,1461.506C722.371,1465.725 718.976,1466.899 715.431,1468.318C712.139,1469.635 708.718,1471.198 705.602,1476.129C703.616,1479.272 689.456,1492.254 673.12,1498.851C672.854,1498.958 670.083,1500.071 669.779,1500.147C669.007,1500.339 668.627,1500.185 668.43,1500.054L668.258,1499.91L668.131,1499.744L668.031,1499.527C668.017,1499.488 668.004,1499.432 667.994,1499.383C667.888,1499.164 667.89,1498.898 668.023,1498.673C668.233,1498.317 668.694,1498.198 669.05,1498.409L669.2,1498.523L669.306,1498.649L669.338,1498.708ZM669.454,1499.049L669.463,1499.085C669.46,1499.073 669.457,1499.061 669.454,1499.049Z" style="fill:rgb(207,90,35);"/>
            <path d="M706.732,1482.883C706.706,1483.028 706.637,1483.167 706.525,1483.279C706.232,1483.572 705.757,1483.572 705.464,1483.279L705.318,1483.073L705.244,1482.784L705.264,1482.56C705.276,1482.508 705.309,1482.399 705.369,1482.246C705.874,1480.951 708.725,1474.764 708.996,1474.397C711.595,1470.878 715.131,1469.354 719.135,1467.432C724.859,1464.686 731.542,1461.026 737.572,1448.593C737.752,1448.221 738.201,1448.065 738.574,1448.246C738.946,1448.427 739.102,1448.876 738.921,1449.248C732.666,1462.147 725.722,1465.935 719.784,1468.784C716.014,1470.593 712.65,1471.975 710.202,1475.288C709.944,1475.639 707.248,1481.555 706.767,1482.791C706.754,1482.823 706.741,1482.858 706.732,1482.883Z" style="fill:rgb(207,90,35);"/>
            <path d="M697.167,1492.404C697.814,1491.605 698.99,1490.014 699.638,1488.272C701.261,1483.917 700.475,1483.465 704.491,1479.482C704.785,1479.191 705.26,1479.192 705.551,1479.486C705.843,1479.78 705.841,1480.256 705.547,1480.547C701.788,1484.275 702.563,1484.72 701.044,1488.796C700.355,1490.644 699.264,1492.22 698.507,1493.162C698.485,1493.194 698.46,1493.225 698.432,1493.254C698.071,1493.697 697.797,1493.983 697.698,1494.07L697.487,1494.211L697.162,1494.282L696.863,1494.218L696.636,1494.063L696.483,1493.842L696.416,1493.561L696.436,1493.356L696.533,1493.124C696.571,1493.062 696.759,1492.827 697.167,1492.404Z" style="fill:rgb(207,90,35);"/>
            <path d="M691.101,1492.816C691.008,1493.118 690.727,1493.34 690.394,1493.345L690.148,1493.309L689.926,1493.198L689.754,1493.026L689.647,1492.818L689.611,1492.647L689.617,1492.457L689.735,1492.134C689.831,1491.971 690.168,1491.593 690.63,1491.127C691.529,1490.219 692.952,1488.866 693.426,1488.147C695.183,1485.485 695.434,1485.813 702.524,1480.999C702.867,1480.766 703.334,1480.855 703.566,1481.198C703.799,1481.54 703.709,1482.007 703.367,1482.239C696.631,1486.814 696.347,1486.444 694.678,1488.973C694.239,1489.639 693.061,1490.819 692.12,1491.757C691.701,1492.176 691.269,1492.635 691.101,1492.816ZM690.949,1492.102C690.838,1491.95 690.661,1491.841 690.375,1491.845C690.603,1491.842 690.81,1491.942 690.949,1492.102Z" style="fill:rgb(207,90,35);"/>
            <path d="M719.349,1474.519C719.4,1475.083 719.526,1476.679 719.186,1478.112C718.915,1479.256 718.341,1480.283 717.337,1480.791C716.968,1480.978 716.516,1480.83 716.329,1480.461C716.142,1480.091 716.29,1479.64 716.66,1479.453C717.064,1479.248 717.322,1478.879 717.503,1478.457C717.725,1477.943 717.83,1477.348 717.88,1476.785C717.976,1475.688 717.856,1474.696 717.84,1474.489L717.846,1474.267L717.895,1474.1C718.798,1471.942 721.068,1470.41 722.899,1468.555C723.19,1468.26 723.665,1468.257 723.96,1468.548C724.255,1468.839 724.258,1469.314 723.967,1469.609C723.08,1470.506 722.081,1471.319 721.193,1472.168C720.434,1472.894 719.756,1473.642 719.349,1474.519Z" style="fill:rgb(207,90,35);"/>
            <path d="M725.836,1471.771C725.546,1472.065 725.07,1472.069 724.776,1471.778C724.481,1471.488 724.477,1471.012 724.768,1470.718C725.376,1470.101 725.777,1469.841 726.086,1469.261C726.407,1468.66 726.628,1467.735 726.937,1465.822C727.003,1465.413 727.388,1465.135 727.797,1465.201C728.205,1465.267 728.483,1465.652 728.418,1466.061C728.066,1468.239 727.775,1469.282 727.41,1469.967C727.033,1470.673 726.577,1471.019 725.836,1471.771Z" style="fill:rgb(207,90,35);"/>
            <path d="M734.376,1461.216C734.42,1461.628 734.121,1461.998 733.71,1462.042C733.298,1462.085 732.928,1461.787 732.885,1461.375C732.552,1458.253 732.671,1457.749 732.732,1457.44C732.813,1457.033 733.207,1456.769 733.613,1456.849C734.02,1456.929 734.284,1457.324 734.204,1457.73C734.15,1458.004 734.082,1458.449 734.376,1461.216Z" style="fill:rgb(207,90,35);"/>
            <path d="M736.266,1454.568L736.394,1454.666L736.541,1454.84L736.623,1455.007L736.67,1455.21C736.797,1456.502 736.812,1456.951 736.813,1457.023C736.897,1457.416 736.654,1457.808 736.261,1457.906C735.86,1458.007 735.452,1457.762 735.352,1457.36C735.315,1457.212 735.357,1457.222 735.203,1455.622C734.944,1455.327 734.956,1454.878 735.237,1454.597C735.519,1454.315 735.972,1454.305 736.266,1454.568ZM735.357,1455.754C735.377,1455.772 735.397,1455.788 735.42,1455.804L735.357,1455.754ZM736.285,1454.586C736.289,1454.589 736.293,1454.593 736.297,1454.597C736.293,1454.594 736.289,1454.59 736.285,1454.586ZM736.262,1454.565C736.254,1454.558 736.246,1454.552 736.237,1454.546L736.262,1454.565Z" style="fill:rgb(207,90,35);"/>
            <path d="M754.934,1466.034C754.92,1466.004 754.901,1465.965 754.884,1465.931C754.026,1464.236 748.9,1455.725 748.414,1454.918C747.044,1452.642 746.05,1450.887 745.08,1449.656C744.235,1448.583 743.434,1447.935 742.334,1447.768C741.326,1447.615 740.103,1447.841 738.454,1448.398C738.062,1448.53 737.636,1448.319 737.504,1447.927C737.371,1447.535 737.582,1447.109 737.974,1446.977C740.615,1446.085 742.358,1446.012 743.776,1446.636C744.647,1447.019 745.408,1447.671 746.169,1448.615C747.197,1449.89 748.246,1451.73 749.7,1454.144C750.19,1454.958 755.357,1463.544 756.222,1465.253C756.333,1465.472 756.388,1465.626 756.404,1465.692L756.423,1465.938L756.357,1466.193L756.256,1466.356L756.084,1466.512L755.869,1466.609L755.669,1466.636C755.306,1466.636 755.003,1466.377 754.934,1466.034ZM755.047,1465.468C755.181,1465.267 755.41,1465.136 755.669,1465.136C755.393,1465.136 755.184,1465.244 755.047,1465.468Z" style="fill:rgb(207,90,35);"/>
            <path d="M746.643,1450.718C746.244,1450.605 746.012,1450.191 746.124,1449.792C746.237,1449.394 746.651,1449.162 747.05,1449.274C749.217,1449.885 750.065,1450.611 750.9,1451.398C751.617,1452.073 752.318,1452.807 754.125,1453.552C755.591,1454.156 756.927,1455.727 757.949,1457.256C758.85,1458.603 759.484,1459.898 759.766,1460.182C760.058,1460.475 760.057,1460.95 759.764,1461.242C759.471,1461.534 758.995,1461.533 758.703,1461.24C758.397,1460.932 757.679,1459.549 756.702,1458.089C755.847,1456.81 754.78,1455.444 753.553,1454.938C751.493,1454.089 750.689,1453.259 749.872,1452.49C749.173,1451.831 748.458,1451.23 746.643,1450.718Z" style="fill:rgb(207,90,35);"/>
            <path d="M752.649,1458.245C752.236,1458.219 751.921,1457.863 751.946,1457.45C751.972,1457.037 752.328,1456.722 752.741,1456.747C757.091,1457.015 758.235,1456.23 759.411,1455.621C760.017,1455.307 760.632,1455.04 761.56,1454.929C762.776,1454.784 763.705,1455.503 764.523,1456.534C764.995,1457.128 765.437,1457.822 765.943,1458.378C766.324,1458.797 766.732,1459.146 767.272,1459.184C768.621,1459.28 769.623,1459.276 770.436,1459.326C771.372,1459.383 772.087,1459.515 772.768,1459.867C773.635,1460.314 774.462,1461.138 775.616,1462.771C776.639,1464.221 778.257,1465.164 780.051,1465.843C781.948,1466.56 784.045,1466.976 785.926,1467.313C787.49,1467.593 788.911,1467.82 789.967,1468.106C790.801,1468.332 791.432,1468.616 791.806,1468.947C796.231,1472.871 801.122,1478.05 808.593,1477.468C810.361,1477.33 811.273,1478.058 812.201,1479.178C813.291,1480.494 814.424,1482.464 818.012,1483.638C820.144,1484.335 821.287,1485.175 822.251,1485.913C823.498,1486.867 824.4,1487.618 827.323,1487.446C829.39,1487.324 830.209,1487.984 831.031,1488.7C831.634,1489.226 832.234,1489.804 833.755,1489.885C833.903,1489.893 834.89,1489.976 835.48,1490.566C835.773,1490.859 835.773,1491.334 835.48,1491.627C835.187,1491.92 834.712,1491.92 834.419,1491.627C834.17,1491.378 833.738,1491.386 833.675,1491.383C832.033,1491.295 831.186,1490.778 830.494,1490.215C829.725,1489.588 829.235,1488.835 827.412,1488.943C824.468,1489.117 823.226,1488.491 822.02,1487.618C820.971,1486.858 819.963,1485.854 817.546,1485.063C814.185,1483.964 812.728,1482.26 811.628,1480.866C810.766,1479.774 810.233,1478.845 808.709,1478.963C800.777,1479.581 795.509,1474.235 790.81,1470.069C790.563,1469.85 790.127,1469.704 789.575,1469.554C788.552,1469.277 787.176,1469.06 785.662,1468.789C783.292,1468.365 780.598,1467.81 778.33,1466.744C776.736,1465.995 775.349,1464.994 774.391,1463.637C773.438,1462.288 772.796,1461.569 772.08,1461.2C771.574,1460.939 771.039,1460.866 770.345,1460.823C769.528,1460.773 768.521,1460.776 767.166,1460.681C766.378,1460.625 765.716,1460.251 765.135,1459.697C764.654,1459.238 764.227,1458.65 763.806,1458.075C763.449,1457.586 763.1,1457.106 762.699,1456.769C762.419,1456.534 762.115,1456.374 761.738,1456.418C760.759,1456.535 760.228,1456.892 759.559,1457.238C758.373,1457.852 756.836,1458.502 752.649,1458.245Z" style="fill:rgb(207,90,35);"/>
            <path d="M837.947,1490.306C837.998,1490.311 838.156,1490.326 838.284,1490.34C839.054,1490.424 840.767,1490.74 845.794,1493.612C850.929,1496.546 868.641,1498.95 875.366,1499.316C876.954,1499.403 878.819,1500.09 880.887,1500.938C883.789,1502.129 887.124,1503.636 890.697,1503.941C891.109,1503.976 891.416,1504.34 891.38,1504.752C891.345,1505.165 890.982,1505.471 890.569,1505.436C886.839,1505.117 883.348,1503.569 880.317,1502.326C878.429,1501.552 876.735,1500.893 875.285,1500.814C868.405,1500.44 850.303,1497.916 845.05,1494.915C839.73,1491.875 838.446,1491.865 837.861,1491.807C837.566,1491.778 837.367,1491.721 837.147,1491.574C836.802,1491.344 836.709,1490.878 836.939,1490.534C837.162,1490.2 837.606,1490.102 837.947,1490.306Z" style="fill:rgb(207,90,35);"/>
            <path d="M869.958,1499.378C870.351,1499.249 870.776,1499.463 870.905,1499.856C871.035,1500.249 870.82,1500.674 870.427,1500.803C869.956,1500.958 870.008,1500.99 864.751,1503.286C864.371,1503.451 863.929,1503.278 863.763,1502.899C863.598,1502.519 863.771,1502.077 864.15,1501.911C869.527,1499.563 869.477,1499.537 869.958,1499.378Z" style="fill:rgb(207,90,35);"/>
            <path d="M838.374,1490.508C838.783,1490.448 839.165,1490.731 839.225,1491.141C839.285,1491.55 839.002,1491.932 838.592,1491.992C838.112,1492.063 836.515,1492.477 835.342,1492.466C834.62,1492.458 834.03,1492.266 833.704,1491.94C833.412,1491.648 833.412,1491.172 833.704,1490.88C833.997,1490.587 834.472,1490.587 834.765,1490.88C834.816,1490.93 834.906,1490.927 835.004,1490.941C835.236,1490.976 835.51,1490.971 835.797,1490.949C836.821,1490.871 837.984,1490.565 838.374,1490.508Z" style="fill:rgb(207,90,35);"/>
            <path d="M842.386,1495.954C842.79,1496.045 843.044,1496.447 842.953,1496.851C842.861,1497.255 842.459,1497.508 842.056,1497.417C840.736,1497.119 827.431,1494.11 825.582,1493.599C825.183,1493.488 824.948,1493.075 825.059,1492.676C825.169,1492.277 825.583,1492.043 825.982,1492.153C827.823,1492.663 841.072,1495.657 842.386,1495.954Z" style="fill:rgb(207,90,35);"/>
            <path d="M823.251,1494.363C823.56,1494.638 823.588,1495.113 823.313,1495.422C823.038,1495.731 822.563,1495.759 822.254,1495.484C818.32,1491.986 818.331,1491.816 813.187,1490.791C811.829,1490.521 811.077,1489.966 810.442,1489.472C810.105,1489.21 809.824,1488.956 809.429,1488.854C809.038,1488.753 808.549,1488.817 807.807,1489.085C807.651,1489.141 806.823,1489.534 805.529,1489.373C804.32,1489.223 802.656,1488.58 800.766,1486.542C800.484,1486.239 800.502,1485.764 800.806,1485.482C801.109,1485.201 801.584,1485.219 801.866,1485.522C803.406,1487.183 804.729,1487.762 805.714,1487.884C806.614,1487.996 807.189,1487.714 807.297,1487.675C809.238,1486.972 810.091,1487.357 810.928,1487.958C811.538,1488.396 812.123,1489.05 813.48,1489.32C819.02,1490.424 819.014,1490.596 823.251,1494.363Z" style="fill:rgb(207,90,35);"/>
            <path d="M801.352,1481.625C801.645,1481.918 801.645,1482.393 801.352,1482.685C801.059,1482.978 800.584,1482.978 800.291,1482.685C798.608,1481.002 797.817,1479.785 797.126,1478.703C796.344,1477.476 795.7,1476.438 793.847,1475.022C794.156,1476.795 794.275,1477.297 794.068,1480.021C794.036,1480.434 793.675,1480.743 793.263,1480.712C792.85,1480.68 792.54,1480.319 792.572,1479.907C792.822,1476.629 792.561,1476.737 792.08,1473.494C792.036,1473.201 792.169,1472.911 792.417,1472.752C792.666,1472.593 792.986,1472.594 793.233,1472.756C795.988,1474.563 797.012,1475.802 797.888,1477.118C798.701,1478.339 799.367,1479.64 801.352,1481.625Z" style="fill:rgb(207,90,35);"/>
            <path d="M787.415,1478.478C787.621,1478.838 787.496,1479.296 787.136,1479.502C786.777,1479.707 786.318,1479.582 786.113,1479.223C785.307,1477.812 783.647,1476.917 781.955,1476.014C780.037,1474.99 778.067,1473.974 776.884,1472.496C776.626,1472.173 776.678,1471.7 777.002,1471.442C777.325,1471.183 777.797,1471.235 778.056,1471.559C779.123,1472.893 780.93,1473.766 782.662,1474.69C784.62,1475.735 786.482,1476.846 787.415,1478.478Z" style="fill:rgb(207,90,35);"/>
            <path d="M783.181,1470.148C783.561,1470.314 783.733,1470.757 783.567,1471.136C783.401,1471.515 782.958,1471.688 782.579,1471.522C780.485,1470.604 779.779,1469.609 779.125,1468.511C778.579,1467.593 778.086,1466.58 776.517,1465.459C776.18,1465.218 776.102,1464.749 776.342,1464.413C776.583,1464.076 777.052,1463.998 777.388,1464.238C779.198,1465.531 779.784,1466.685 780.414,1467.743C780.937,1468.622 781.506,1469.413 783.181,1470.148Z" style="fill:rgb(207,90,35);"/>
            <path d="M770.127,1471.607C770.362,1471.948 770.275,1472.415 769.934,1472.65C769.593,1472.885 769.126,1472.798 768.891,1472.457C766.278,1468.659 767.186,1468.228 762.651,1462.09C762.474,1461.851 762.455,1461.53 762.603,1461.272C763.376,1459.919 763.242,1459.902 764.255,1458.729C764.526,1458.416 765,1458.381 765.313,1458.652C765.626,1458.923 765.661,1459.397 765.39,1459.71C764.595,1460.63 764.588,1460.769 764.143,1461.589C768.374,1467.382 767.559,1467.875 770.127,1471.607Z" style="fill:rgb(207,90,35);"/>
            <path d="M766.17,1464.474C765.941,1464.129 766.036,1463.663 766.381,1463.435C766.727,1463.207 767.192,1463.301 767.421,1463.646C768.465,1465.224 768.448,1465.151 768.71,1465.675C768.895,1466.045 768.745,1466.496 768.375,1466.681C768.005,1466.867 767.554,1466.716 767.369,1466.346C767.126,1465.861 767.135,1465.933 766.17,1464.474Z" style="fill:rgb(207,90,35);"/>
            <path d="M745.142,1481.901C745.529,1481.755 745.962,1481.95 746.108,1482.337C746.255,1482.725 746.059,1483.158 745.672,1483.304C738.294,1486.09 738.874,1487.378 731.25,1489.251C730.769,1489.369 730.428,1489.671 730.114,1490.04C729.706,1490.519 729.35,1491.106 728.923,1491.685C727.943,1493.018 726.646,1494.315 723.959,1494.554C721.034,1494.813 719.725,1495.418 718.445,1496.142C717.05,1496.931 715.682,1497.839 712.612,1498.614C708.005,1499.776 707.614,1499.04 704.106,1502.246C702.705,1503.526 702.877,1503.684 701.045,1504.218C700.648,1504.334 700.231,1504.105 700.115,1503.708C699.999,1503.311 700.228,1502.894 700.625,1502.778C702.116,1502.343 701.954,1502.181 703.094,1501.139C706.879,1497.68 707.275,1498.413 712.245,1497.159C715.122,1496.433 716.4,1495.575 717.707,1494.836C719.128,1494.033 720.578,1493.348 723.827,1493.059C726.394,1492.832 727.343,1491.351 728.201,1490.106C728.955,1489.013 729.687,1488.09 730.892,1487.794C738.428,1485.943 737.848,1484.655 745.142,1481.901Z" style="fill:rgb(207,90,35);"/>
            <path d="M705.474,1499.281C705.887,1499.251 706.246,1499.561 706.277,1499.974C706.307,1500.387 705.997,1500.747 705.584,1500.777C703.362,1500.941 701.868,1500.774 700.761,1500.718C699.922,1500.675 699.364,1500.658 698.855,1501.121C693.712,1505.796 690.967,1505.719 687.167,1505.457C684.807,1505.295 682.009,1505.047 677.817,1505.977C673.759,1506.877 668.709,1506.248 656.931,1507.945C656.521,1508.004 656.14,1507.72 656.081,1507.31C656.022,1506.9 656.307,1506.52 656.717,1506.461C668.432,1504.773 673.456,1505.408 677.492,1504.513C681.876,1503.54 684.802,1503.791 687.27,1503.961C690.711,1504.198 693.188,1504.245 697.846,1500.011C698.518,1499.4 699.22,1499.208 700.187,1499.202C701.312,1499.195 702.884,1499.472 705.474,1499.281Z" style="fill:rgb(207,90,35);"/>
            <path d="M757.229,1496.343C757.012,1496.227 756.604,1496.01 756.271,1495.84C755.215,1495.299 753.966,1494.472 753.412,1492.904C753.077,1491.955 750.83,1485.479 745.002,1483.551C744.609,1483.421 744.396,1482.996 744.526,1482.603C744.656,1482.21 745.08,1481.997 745.473,1482.127C751.912,1484.258 754.457,1491.356 754.827,1492.405C755.161,1493.35 755.874,1493.895 756.539,1494.279C757.07,1494.586 757.582,1494.801 757.935,1494.999C758.349,1495.232 758.6,1495.499 758.704,1495.743L758.775,1495.991L758.781,1496.26L758.722,1496.51L758.62,1496.72C758.405,1497.074 757.943,1497.187 757.589,1496.972C757.361,1496.833 757.233,1496.592 757.229,1496.343Z" style="fill:rgb(207,90,35);"/>
            <path d="M751.13,1487.607C750.717,1487.634 750.359,1487.32 750.332,1486.907C750.305,1486.494 750.618,1486.137 751.031,1486.11C756.874,1485.726 759.533,1487.212 762.201,1488.701C764.672,1490.08 767.151,1491.463 772.596,1491.114C774.655,1490.982 775.748,1490.984 776.633,1491.397C777.519,1491.81 778.229,1492.649 779.441,1494.352C779.64,1494.631 779.819,1494.804 780.022,1494.885C780.221,1494.964 780.429,1494.953 780.66,1494.928C780.959,1494.895 781.284,1494.829 781.648,1494.771C783.017,1494.557 784.88,1494.437 787.789,1496.222C790.108,1497.645 791.505,1497.728 792.892,1497.837C794.467,1497.961 796.033,1498.112 798.625,1499.841C798.97,1500.07 799.063,1500.536 798.833,1500.881C798.604,1501.225 798.138,1501.318 797.793,1501.089C795.523,1499.575 794.153,1499.441 792.774,1499.332C791.206,1499.209 789.628,1499.11 787.005,1497.5C784.058,1495.692 782.388,1496.18 781.178,1496.371C780.486,1496.48 779.901,1496.487 779.345,1496.225C778.967,1496.048 778.592,1495.745 778.22,1495.222C777.232,1493.836 776.72,1493.093 775.998,1492.756C775.275,1492.418 774.376,1492.503 772.692,1492.611C766.814,1492.988 764.137,1491.5 761.47,1490.011C759,1488.632 756.539,1487.252 751.13,1487.607Z" style="fill:rgb(207,90,35);"/>
            <path d="M793.69,1502.127C793.276,1502.12 792.945,1501.778 792.953,1501.364C792.96,1500.95 793.302,1500.62 793.716,1500.627C802.314,1500.776 802.075,1501.962 810.539,1503.459C815.424,1504.322 819.168,1502.811 824.007,1502.385C824.419,1502.348 824.783,1502.654 824.82,1503.066C824.856,1503.478 824.551,1503.842 824.139,1503.879C819.16,1504.318 815.304,1505.824 810.278,1504.936C801.93,1503.46 802.169,1502.274 793.69,1502.127Z" style="fill:rgb(207,90,35);"/>
            <path d="M757.457,1489.298C757.152,1489.017 757.133,1488.542 757.414,1488.238C757.695,1487.934 758.17,1487.915 758.474,1488.196C763.506,1492.841 762.802,1493.634 768.845,1496.863C770.719,1497.864 771.512,1499.209 772.419,1500.487C773.593,1502.14 775.051,1503.564 780.339,1503.577C780.753,1503.578 781.088,1503.915 781.087,1504.329C781.086,1504.743 780.749,1505.078 780.335,1505.077C774.198,1505.062 772.559,1503.275 771.196,1501.355C770.411,1500.25 769.76,1499.052 768.138,1498.186C761.925,1494.866 762.63,1494.074 757.457,1489.298Z" style="fill:rgb(207,90,35);"/>
            <path d="M753.589,1489.395C753.297,1489.103 753.297,1488.627 753.589,1488.335C753.882,1488.042 754.357,1488.042 754.65,1488.335C755.235,1488.92 760.279,1493.968 761.754,1495.856C762.598,1496.936 762.865,1497.551 763.122,1498.162C763.343,1498.686 763.554,1499.207 764.24,1500.122C764.488,1500.453 764.421,1500.924 764.09,1501.172C763.759,1501.421 763.288,1501.353 763.04,1501.022C762.242,1499.959 761.996,1499.353 761.74,1498.744C761.521,1498.223 761.291,1497.7 760.572,1496.779C759.123,1494.925 754.164,1489.97 753.589,1489.395Z" style="fill:rgb(207,90,35);"/>
            <path d="M748.912,1492.866C749.257,1492.636 749.723,1492.73 749.952,1493.075C750.181,1493.419 750.088,1493.885 749.743,1494.114C748.662,1494.834 739.578,1500.86 735.586,1502.043C735.189,1502.161 734.771,1501.934 734.653,1501.537C734.536,1501.14 734.762,1500.723 735.159,1500.605C739.042,1499.454 747.861,1493.565 748.912,1492.866Z" style="fill:rgb(207,90,35);"/>
            <path d="M713.819,1501.688C714.133,1501.6 714.568,1501.469 714.988,1501.315C718.466,1500.044 725.295,1496.936 725.998,1496.616C735.087,1492.482 734.789,1492.035 741.485,1484.576C741.762,1484.268 742.236,1484.242 742.544,1484.519C742.852,1484.795 742.878,1485.27 742.601,1485.578C735.696,1493.27 735.993,1493.718 726.62,1497.981C725.804,1498.352 716.879,1502.407 714.185,1503.163C713.721,1503.293 713.38,1503.323 713.209,1503.3L712.981,1503.239L712.784,1503.125L712.656,1503L712.55,1502.834L712.489,1502.648L712.473,1502.472L712.553,1502.128L712.66,1501.945C712.701,1501.889 712.755,1501.825 712.825,1501.753C713.095,1501.48 713.524,1501.458 713.819,1501.688Z" style="fill:rgb(207,90,35);"/>
            <path d="M792.97,1459.34C793.523,1458.89 798.567,1454.313 801.119,1452.404C801.631,1452.021 802.055,1451.738 802.339,1451.594C802.447,1451.54 802.542,1451.501 802.622,1451.475L802.874,1451.423C804.076,1451.319 805.462,1451.392 806.906,1450.53C807.864,1449.957 808.838,1448.973 809.819,1447.288C810.027,1446.93 810.487,1446.808 810.844,1447.017C811.202,1447.225 811.324,1447.684 811.115,1448.042C809.966,1450.017 808.798,1451.147 807.675,1451.818C806.023,1452.804 804.45,1452.798 803.068,1452.911C802.937,1452.997 801.86,1453.705 800.927,1454.457C798.078,1456.755 793.889,1460.542 793.711,1460.652L793.501,1460.751C793.431,1460.776 793.343,1460.8 793.239,1460.821C792.977,1460.873 792.553,1460.909 791.997,1460.946C789.15,1461.137 782.452,1461.411 777.126,1465.564C776.799,1465.819 776.328,1465.76 776.073,1465.434C775.818,1465.107 775.877,1464.636 776.203,1464.381C781.136,1460.535 787.167,1459.792 790.619,1459.536C791.713,1459.455 792.782,1459.357 792.97,1459.34Z" style="fill:rgb(207,90,35);"/>
            <path d="M798.129,1459.998C798.226,1459.923 798.827,1459.458 799.413,1458.934C801.6,1456.981 805.6,1453.069 808.037,1450.437C809.019,1449.376 809.744,1448.548 809.936,1448.169C810.123,1447.8 810.574,1447.652 810.944,1447.839C811.313,1448.026 811.461,1448.477 811.274,1448.846C810.577,1450.223 803.612,1457.195 800.412,1460.053C799.836,1460.568 799.378,1460.952 799.096,1461.155C798.884,1461.308 798.719,1461.386 798.628,1461.414C793.156,1463.097 793.151,1463.128 788.998,1466.962C788.694,1467.243 788.219,1467.224 787.939,1466.92C787.658,1466.616 787.677,1466.141 787.981,1465.86C792.368,1461.81 792.387,1461.764 798.129,1459.998Z" style="fill:rgb(207,90,35);"/>
            <path d="M796.851,1466.558C796.535,1466.802 796.08,1466.755 795.82,1466.447C795.553,1466.131 795.593,1465.658 795.909,1465.391L796.125,1465.244C796.194,1465.207 796.29,1465.201 796.385,1465.09C796.689,1464.735 796.99,1463.841 797.349,1461.302C797.406,1460.892 797.786,1460.607 798.196,1460.664C798.606,1460.722 798.892,1461.102 798.834,1461.512C798.4,1464.591 797.892,1465.637 797.523,1466.067C797.279,1466.351 796.908,1466.531 796.851,1466.558Z" style="fill:rgb(207,90,35);"/>
            <path d="M801.587,1462.934C801.473,1463.332 801.057,1463.562 800.659,1463.447C800.261,1463.333 800.031,1462.917 800.146,1462.519C800.76,1460.386 800.395,1460.374 800.933,1458.191C801.033,1457.789 801.439,1457.544 801.841,1457.643C802.243,1457.742 802.489,1458.149 802.39,1458.551C801.844,1460.762 802.21,1460.773 801.587,1462.934Z" style="fill:rgb(207,90,35);"/>
            <path d="M806.129,1459.522C806.229,1459.924 805.984,1460.331 805.582,1460.431C805.18,1460.531 804.773,1460.286 804.673,1459.884C804.144,1457.758 803.654,1456.659 804.545,1454.675C804.714,1454.298 805.158,1454.129 805.536,1454.298C805.914,1454.468 806.083,1454.912 805.913,1455.289C805.189,1456.903 805.699,1457.793 806.129,1459.522Z" style="fill:rgb(207,90,35);"/>
            <path d="M811.57,1447.389C812.219,1448.018 817.291,1452.703 825.263,1453.566C825.481,1453.589 825.678,1453.707 825.802,1453.889C828.075,1457.222 830.194,1456.946 832.035,1457.093C833.595,1457.217 835.001,1457.573 836.227,1459.643C838.457,1463.41 840.716,1465.385 842.998,1466.355C846.474,1467.832 849.959,1467.017 853.295,1466.83C853.496,1466.818 853.693,1466.888 853.842,1467.024C859.599,1472.262 859.509,1472.872 867.26,1473.897C867.478,1473.926 867.673,1474.05 867.792,1474.235C868.668,1475.596 869.093,1476.329 869.717,1476.775C870.33,1477.213 871.126,1477.351 872.675,1477.627C873.16,1477.713 873.465,1477.844 874.101,1478.237C875.312,1478.985 878.017,1480.839 887.623,1485.789C888.207,1486.09 888.148,1486.026 893.567,1491.445C893.86,1491.738 893.86,1492.213 893.567,1492.506C893.274,1492.798 892.799,1492.798 892.506,1492.506C887.39,1487.39 887.487,1487.406 886.936,1487.123C877.258,1482.136 874.533,1480.267 873.313,1479.513C872.907,1479.263 872.722,1479.159 872.412,1479.104C870.533,1478.769 869.59,1478.527 868.846,1477.995C868.158,1477.504 867.63,1476.75 866.719,1475.339C858.956,1474.293 858.846,1473.621 853.067,1468.346C849.607,1468.571 846.007,1469.264 842.411,1467.735C839.906,1466.67 837.385,1464.544 834.936,1460.407C833.798,1458.484 832.414,1458.624 830.898,1458.525C829.029,1458.403 826.958,1458.084 824.761,1455.018C815.734,1453.931 810.81,1448.944 810.274,1448.185L810.167,1448.005L810.106,1447.821L810.091,1447.616L810.141,1447.39L810.234,1447.22L810.383,1447.067L810.56,1446.964L810.726,1446.918L811.024,1446.929L811.266,1447.03C811.409,1447.118 811.512,1447.245 811.57,1447.389ZM810.641,1448.383C810.587,1448.365 810.534,1448.341 810.483,1448.309C810.538,1448.344 810.592,1448.367 810.641,1448.383Z" style="fill:rgb(207,90,35);"/>
            <path d="M814.419,1454.814C814.156,1454.495 814.201,1454.022 814.52,1453.758C814.839,1453.494 815.312,1453.539 815.576,1453.858C816.333,1454.774 820.9,1460.3 825.726,1464.703C829.345,1468.005 828.609,1468.5 831.588,1472.339C831.842,1472.666 831.782,1473.137 831.455,1473.391C831.128,1473.645 830.657,1473.586 830.403,1473.259C827.503,1469.522 828.238,1469.026 824.715,1465.811C819.821,1461.346 815.187,1455.743 814.419,1454.814Z" style="fill:rgb(207,90,35);"/>
            <path d="M830.315,1463.001C829.999,1462.734 829.959,1462.26 830.226,1461.944C830.493,1461.627 830.967,1461.588 831.283,1461.855C837.563,1467.157 842.308,1472.741 845.9,1475.955C847.03,1476.967 848.034,1477.737 848.935,1478.158C849.644,1478.489 850.265,1478.602 850.815,1478.323C851.184,1478.136 851.636,1478.284 851.823,1478.653C852.01,1479.023 851.862,1479.474 851.493,1479.661C850.176,1480.328 848.561,1479.906 846.657,1478.516C842.898,1475.771 837.651,1469.195 830.315,1463.001Z" style="fill:rgb(207,90,35);"/>
            <path d="M822.143,1458.169C821.758,1458.015 821.571,1457.578 821.725,1457.194C821.879,1456.81 822.316,1456.622 822.7,1456.776C824.882,1457.649 826.203,1457.532 827.235,1457.496C827.784,1457.477 828.266,1457.484 828.739,1457.604C829.141,1457.706 829.384,1458.114 829.282,1458.515C829.18,1458.916 828.772,1459.16 828.371,1459.058C827.892,1458.936 827.399,1458.994 826.792,1459.013C825.691,1459.049 824.278,1459.023 822.143,1458.169Z" style="fill:rgb(207,90,35);"/>
            <path d="M815.097,1462.631C814.691,1462.549 814.428,1462.154 814.509,1461.748C814.591,1461.342 814.986,1461.079 815.392,1461.16C817.147,1461.512 816.974,1461.697 818.417,1462.813C818.745,1463.066 818.805,1463.537 818.552,1463.865C818.299,1464.192 817.827,1464.253 817.5,1464C816.342,1463.105 816.505,1462.913 815.097,1462.631Z" style="fill:rgb(207,90,35);"/>
            <path d="M838.88,1480.856C838.526,1480.642 838.412,1480.181 838.626,1479.827C838.84,1479.472 839.302,1479.359 839.656,1479.573C841.225,1480.522 841.13,1480.448 842.631,1481.574C842.962,1481.822 843.029,1482.293 842.781,1482.624C842.533,1482.955 842.062,1483.022 841.731,1482.774C840.293,1481.695 840.384,1481.766 838.88,1480.856Z" style="fill:rgb(207,90,35);"/>
            <path d="M846.539,1470.271C846.131,1470.205 845.852,1469.82 845.918,1469.411C845.984,1469.002 846.369,1468.724 846.778,1468.79C852.748,1469.75 857.049,1474.59 857.121,1474.649C857.442,1474.91 857.491,1475.383 857.23,1475.704C856.968,1476.025 856.495,1476.073 856.174,1475.812C856.107,1475.757 852.122,1471.169 846.539,1470.271Z" style="fill:rgb(207,90,35);"/>
            <path d="M851.097,1474.937C850.777,1474.675 850.729,1474.203 850.991,1473.882C851.253,1473.561 851.725,1473.514 852.046,1473.775C859.155,1479.58 859.276,1479.349 868.016,1482.462C868.406,1482.601 868.609,1483.031 868.471,1483.42C868.332,1483.81 867.902,1484.014 867.512,1483.875C858.527,1480.675 858.406,1480.905 851.097,1474.937Z" style="fill:rgb(207,90,35);"/>
            <path d="M871.471,1486.098C871.078,1485.969 870.863,1485.545 870.992,1485.152C871.121,1484.759 871.545,1484.544 871.938,1484.673C878.821,1486.929 881.802,1487.075 883.724,1487.31C885.162,1487.486 886.069,1487.713 887.396,1488.708C887.727,1488.957 887.794,1489.427 887.546,1489.758C887.297,1490.09 886.827,1490.157 886.496,1489.908C885.43,1489.109 884.697,1488.94 883.542,1488.799C881.574,1488.559 878.52,1488.409 871.471,1486.098Z" style="fill:rgb(207,90,35);"/>
            <path d="M876.566,1489.445C876.503,1489.036 876.784,1488.653 877.193,1488.59C877.602,1488.527 877.985,1488.808 878.048,1489.217L878.542,1492.424C887.902,1491.307 887.766,1492.754 888.847,1493.195C889.23,1493.351 889.415,1493.789 889.258,1494.173C889.102,1494.556 888.664,1494.74 888.281,1494.584C887.249,1494.163 887.405,1492.81 878.006,1494.002C877.602,1494.053 877.232,1493.774 877.17,1493.372L876.566,1489.445Z" style="fill:rgb(207,90,35);"/>
            <path d="M858.398,1484.414C857.984,1484.396 857.663,1484.045 857.682,1483.632C857.7,1483.218 858.051,1482.897 858.464,1482.916L860.314,1482.998C860.727,1483.016 861.048,1483.367 861.03,1483.78C861.012,1484.194 860.661,1484.515 860.247,1484.496L858.398,1484.414Z" style="fill:rgb(207,90,35);"/>
            <path d="M869.92,1476.941C869.508,1476.981 869.141,1476.679 869.102,1476.267C869.062,1475.854 869.364,1475.488 869.776,1475.448C875.107,1474.931 877.775,1472.027 879.979,1470.137C881.275,1469.025 882.455,1468.252 883.788,1468.209C885.109,1468.167 886.643,1468.829 888.632,1470.818C890.522,1472.708 893.904,1472.769 897.275,1472.272C902.697,1471.473 908.129,1469.096 908.252,1469.071C908.999,1468.92 910.028,1469.263 911.187,1470.048C913.411,1471.553 916.355,1474.657 919.053,1477.087C920.508,1478.397 921.879,1479.509 923.016,1479.997C923.527,1480.216 923.96,1480.338 924.291,1480.111C924.632,1479.877 925.099,1479.964 925.334,1480.305C925.568,1480.646 925.481,1481.114 925.14,1481.348C924.437,1481.83 923.508,1481.84 922.425,1481.375C921.175,1480.839 919.649,1479.641 918.05,1478.202C915.771,1476.15 913.318,1473.604 911.284,1471.985C910.649,1471.48 910.06,1471.068 909.533,1470.805C909.15,1470.613 908.824,1470.486 908.55,1470.542C908.426,1470.567 902.953,1472.951 897.494,1473.756C893.61,1474.329 889.749,1474.056 887.572,1471.879C886.01,1470.317 884.873,1469.675 883.836,1469.708C882.812,1469.741 881.951,1470.421 880.956,1471.275C878.579,1473.314 875.67,1476.384 869.92,1476.941Z" style="fill:rgb(207,90,35);"/>
            <path d="M934.995,1481.368C935.05,1481.392 935.279,1481.491 935.579,1481.56C936.35,1481.739 937.737,1481.911 940.258,1482.008C940.508,1482.018 940.737,1482.152 940.868,1482.366C943.001,1485.848 944.913,1487.418 946.648,1488.049C948.356,1488.67 949.861,1488.371 951.142,1488.219C952.564,1488.051 953.758,1488.076 954.741,1488.969C956.534,1490.599 957.953,1490.737 959.202,1490.811C960.237,1490.873 961.173,1490.923 962.096,1491.435C962.458,1491.635 962.589,1492.092 962.389,1492.454C962.188,1492.816 961.731,1492.947 961.369,1492.747C960.652,1492.35 959.917,1492.356 959.113,1492.308C957.606,1492.219 955.896,1492.046 953.732,1490.079C953.335,1489.718 952.87,1489.633 952.353,1489.632C951.666,1489.631 950.902,1489.775 950.063,1489.857C948.642,1489.997 947.034,1489.98 945.25,1489.073C943.593,1488.231 941.761,1486.599 939.801,1483.491C936.7,1483.354 935.313,1483.086 934.675,1482.861C934.077,1482.65 933.833,1482.336 933.75,1482.196C931.992,1480.452 930.872,1479.845 929.808,1479.193C928.636,1478.475 927.522,1477.712 925.81,1475.565C925.682,1475.404 925.592,1475.284 925.47,1475.24C925.388,1475.21 925.298,1475.236 925.183,1475.263C925.018,1475.302 924.83,1475.367 924.606,1475.45C923.519,1475.855 921.728,1476.661 918.311,1477.513C917.909,1477.613 917.502,1477.368 917.402,1476.966C917.301,1476.565 917.546,1476.157 917.948,1476.057C921.988,1475.051 923.719,1474.105 924.716,1473.835C925.234,1473.694 925.625,1473.701 925.98,1473.829C926.313,1473.95 926.632,1474.19 926.983,1474.63C928.53,1476.57 929.532,1477.265 930.592,1477.914C931.746,1478.621 932.959,1479.283 934.884,1481.209L934.995,1481.368ZM935.033,1481.423L935.055,1481.455C935.052,1481.448 935.043,1481.436 935.033,1481.423Z" style="fill:rgb(207,90,35);"/>
            <path d="M934.624,1484.599C934.379,1484.265 934.45,1483.796 934.783,1483.55C935.117,1483.305 935.586,1483.376 935.832,1483.71C937.089,1485.417 938.027,1485.815 938.678,1486.206C939.079,1486.446 939.397,1486.694 939.653,1487.074C940.217,1487.912 939.77,1488.183 942.093,1489.925C942.424,1490.174 942.491,1490.644 942.243,1490.975C941.995,1491.306 941.524,1491.374 941.193,1491.125C938.56,1489.151 939.047,1488.861 938.408,1487.912C938.217,1487.627 937.938,1487.508 937.6,1487.315C936.866,1486.894 935.882,1486.308 934.624,1484.599Z" style="fill:rgb(207,90,35);"/>
            <path d="M951.918,1492.858C951.58,1493.097 951.112,1493.017 950.873,1492.679C950.633,1492.342 950.714,1491.873 951.051,1491.634C951.865,1491.058 954.009,1489.908 954.272,1489.768C954.637,1489.573 955.092,1489.711 955.287,1490.076C955.482,1490.441 955.344,1490.896 954.979,1491.091C954.73,1491.224 952.691,1492.311 951.918,1492.858Z" style="fill:rgb(207,90,35);"/>
            <path d="M897.467,1481.164C897.539,1480.9 897.753,1480.684 898.039,1480.624L898.232,1480.607L898.446,1480.643L898.591,1480.706L898.594,1480.708C898.727,1480.592 898.859,1480.459 898.992,1480.313C899.734,1479.498 900.428,1478.307 901.141,1477.079C901.904,1475.765 902.685,1474.41 903.538,1473.364C904.167,1472.591 904.843,1471.982 905.567,1471.631C905.94,1471.451 906.389,1471.607 906.569,1471.98C906.749,1472.352 906.593,1472.801 906.221,1472.982C905.553,1473.305 904.961,1473.942 904.393,1474.707C903.432,1476.002 902.566,1477.662 901.69,1479.097C901.059,1480.131 900.419,1481.052 899.749,1481.682C899.217,1482.182 898.658,1482.51 898.077,1482.631L897.884,1482.648L897.671,1482.612L897.525,1482.548L897.377,1482.439L897.191,1482.163L897.147,1482.002L897.14,1481.815L897.179,1481.628L897.271,1481.433C897.306,1481.375 897.396,1481.256 897.467,1481.164ZM897.871,1482.036C897.986,1482.099 898.138,1482.136 898.345,1482.093C898.179,1482.127 898.014,1482.104 897.871,1482.036Z" style="fill:rgb(207,90,35);"/>
            <path d="M902.898,1478.374C902.667,1478.03 902.758,1477.564 903.101,1477.333C903.445,1477.102 903.911,1477.193 904.142,1477.536C905.097,1478.957 905.796,1479.811 906.321,1480.322C906.868,1480.855 907.107,1480.908 907.275,1480.907C907.689,1480.906 908.026,1481.241 908.028,1481.655C908.029,1482.069 907.694,1482.406 907.28,1482.407C906.804,1482.409 905.712,1482.558 902.898,1478.374Z" style="fill:rgb(207,90,35);"/>
            <path d="M904.406,1475.282C904.099,1475.004 904.076,1474.529 904.354,1474.223C904.632,1473.916 905.107,1473.893 905.413,1474.171C907.116,1475.715 907.642,1476.037 907.859,1476.167C908.214,1476.379 908.33,1476.84 908.118,1477.195C907.905,1477.551 907.444,1477.667 907.089,1477.454C906.852,1477.312 906.268,1476.971 904.406,1475.282Z" style="fill:rgb(207,90,35);"/>
            <path d="M891.925,1490.057C891.517,1489.989 891.24,1489.602 891.308,1489.194C891.377,1488.786 891.763,1488.509 892.172,1488.577C893.558,1488.809 894.421,1488.684 895.525,1488.619C897.307,1488.513 899.674,1488.523 905.399,1490.128C907.685,1490.769 910.37,1490.746 912.676,1490.889C914.36,1490.993 915.855,1491.193 916.916,1491.711C918.283,1492.377 918.862,1492.865 919.423,1493.304C919.905,1493.682 920.374,1494.014 921.489,1494.414C921.879,1494.554 922.082,1494.984 921.942,1495.373C921.802,1495.763 921.372,1495.966 920.982,1495.826C919.64,1495.344 919.079,1494.94 918.499,1494.486C917.997,1494.093 917.48,1493.655 916.258,1493.059C915.34,1492.611 914.04,1492.476 912.583,1492.386C910.178,1492.237 907.378,1492.241 904.994,1491.573C898.636,1489.789 896.633,1490.052 894.783,1490.171C893.92,1490.227 893.087,1490.251 891.925,1490.057Z" style="fill:rgb(207,90,35);"/>
            <path d="M915.902,1496.876C915.491,1496.926 915.118,1496.632 915.068,1496.221C915.019,1495.81 915.312,1495.436 915.723,1495.387C926.39,1494.105 929.356,1495.486 931.737,1496.88C932.68,1497.431 933.518,1498.002 934.777,1498.392C935.863,1498.729 936.555,1498.712 937.284,1498.705C938.546,1498.693 939.909,1498.686 943.058,1500.082C943.437,1500.25 943.608,1500.693 943.44,1501.071C943.272,1501.45 942.829,1501.621 942.45,1501.453C939.638,1500.206 938.425,1500.195 937.298,1500.205C936.435,1500.213 935.618,1500.223 934.333,1499.825C932.947,1499.395 932.017,1498.782 930.979,1498.174C928.739,1496.863 925.939,1495.67 915.902,1496.876Z" style="fill:rgb(207,90,35);"/>
            <path d="M938.333,1503.284C937.926,1503.36 937.534,1503.091 937.458,1502.684C937.383,1502.277 937.652,1501.885 938.059,1501.809C939.122,1501.612 943.342,1500.825 951.566,1501.168C951.979,1501.185 952.301,1501.535 952.284,1501.948C952.267,1502.362 951.917,1502.683 951.503,1502.666C943.484,1502.332 939.37,1503.092 938.333,1503.284Z" style="fill:rgb(207,90,35);"/>
        </g>
    </g>
</svg>
